<?xml version="1.0" encoding="UTF-8"?>
<svg version="1.1" xmlns="http://www.w3.org/2000/svg" width="2409" height="881">
<path d="M0 0 C28.71 0 57.42 0 87 0 C96.63283105 25.32266951 106.25570267 50.64856259 115.8125 76 C123.31162971 95.89291975 130.84026815 115.77447078 138.38562012 135.64990234 C145.9681196 155.62449097 153.52030432 175.61035464 161.04980469 195.60498047 C164.7155685 205.33425025 168.39442218 215.05768742 172.13671875 224.7578125 C172.60803978 225.98126373 172.60803978 225.98126373 173.08888245 227.22943115 C174.51814598 230.93815244 175.95231405 234.64480922 177.39672852 238.34765625 C177.88444974 239.60930837 178.37201008 240.8710227 178.859375 242.1328125 C179.27670898 243.20418457 179.69404297 244.27555664 180.12402344 245.37939453 C181 248 181 248 181 251 C181.66 251 182.32 251 183 251 C184.00522998 253.66014807 185.01043231 256.32030659 186.015625 258.98046875 C186.33904373 259.83632568 186.66246246 260.69218262 186.99568176 261.57397461 C188.8356499 266.44333212 190.67501438 271.31291659 192.51342773 276.18286133 C196.39386241 286.46101927 200.27810007 296.73769183 204.17514038 307.00956726 C206.02209559 311.87895304 207.86649348 316.7493054 209.71057129 321.61978149 C210.61279702 324.00074095 211.51620138 326.38125411 212.42077637 328.76132202 C213.6910661 332.10407761 214.95730446 335.44834145 216.22265625 338.79296875 C216.6062178 339.79924316 216.98977936 340.80551758 217.38496399 341.84228516 C217.73109238 342.75953369 218.07722076 343.67678223 218.43383789 344.62182617 C218.73786026 345.42319504 219.04188263 346.2245639 219.3551178 347.05021667 C220 349 220 349 220 351 C221.98 351 223.96 351 226 351 C226 235.17 226 119.34 226 0 C248.77 0 271.54 0 295 0 C295 152.13 295 304.26 295 461 C265.63 461 236.26 461 206 461 C188.92494052 416.60484535 188.92494052 416.60484535 182.58032227 399.72729492 C180.49294113 394.17506624 178.40054969 388.62472501 176.30859375 383.07421875 C175.87533783 381.9244455 175.44208191 380.77467224 174.99569702 379.59005737 C170.01793665 366.38548007 165.00875969 353.19284207 160 340 C152.56766249 320.42136919 145.15808441 300.83433113 137.77050781 281.23876953 C130.74268611 262.59915837 123.68362886 243.97152238 116.61355591 225.34790039 C109.44567371 206.465554 102.30399757 187.57347404 95.1842041 168.67294312 C91.10358818 157.84078285 87.01649514 147.01160196 82.86328125 136.20703125 C82.54906723 135.38903046 82.23485321 134.57102966 81.91111755 133.72824097 C80.48016854 130.0050213 79.04527707 126.28340449 77.60327148 122.56445312 C77.11564501 121.29950909 76.62809097 120.03453714 76.140625 118.76953125 C75.72329102 117.69292236 75.30595703 116.61631348 74.87597656 115.50708008 C74 113 74 113 74 111 C71.69 111 69.38 111 67 111 C67 226.5 67 342 67 461 C44.89 461 22.78 461 0 461 C0 308.87 0 156.74 0 0 Z " fill="#FEFEFE" transform="translate(49,291)"/>
<path d="M0 0 C23.1 0 46.2 0 70 0 C70 97.35 70 194.7 70 295 C131.78529226 293.58811848 131.78529226 293.58811848 182.4609375 261.9453125 C191.52435808 251.43174463 198.32048316 239.61470916 204 227 C204.52078125 225.85789062 205.0415625 224.71578125 205.578125 223.5390625 C215.59330833 200.08244892 220.25079939 174.30572321 224.10058594 149.21508789 C224.89859447 144.10140553 224.89859447 144.10140553 226 143 C228.23929886 142.90563471 230.4816175 142.88257673 232.72290039 142.88647461 C233.4253035 142.88632858 234.1277066 142.88618256 234.85139465 142.8860321 C237.18351278 142.88673128 239.515552 142.89452383 241.84765625 142.90234375 C243.46048438 142.90420792 245.07331307 142.90563182 246.68614197 142.90663147 C250.93915357 142.91045677 255.19213124 142.92028715 259.44512939 142.93133545 C263.7817743 142.94154931 268.11842467 142.94612904 272.45507812 142.95117188 C280.97006769 142.96190941 289.48502963 142.97898597 298 143 C297.69429356 145.67440504 297.38615274 148.34849355 297.07666016 151.02246094 C296.99154678 151.76926117 296.90643341 152.5160614 296.81874084 153.28549194 C295.96113545 160.66435182 294.7458864 167.94786549 293.375 175.25 C293.24850067 175.9251062 293.12200134 176.6002124 292.9916687 177.29577637 C285.19735428 218.486834 271.49601793 259.29270415 246 293 C245.30390625 293.92296875 244.6078125 294.8459375 243.890625 295.796875 C227.98536585 316.00731707 227.98536585 316.00731707 220 320 C221.53406971 325.71372071 224.41688446 330.19138509 227.5625 335.125 C228.74345662 337.00441146 229.92307428 338.88466474 231.1015625 340.765625 C232.04757324 342.27286133 232.04757324 342.27286133 233.01269531 343.81054688 C236.53785069 349.46811811 239.98509432 355.1728869 243.4375 360.875 C244.16722763 362.07883065 244.89704552 363.28260659 245.62695312 364.48632812 C247.06768628 366.86244643 248.50809714 369.23875958 249.94824219 371.61523438 C257.85944759 384.66627574 265.80424382 397.69576583 273.8125 410.6875 C281.17118711 422.62733928 288.46011432 434.60834783 295.72796631 446.60357666 C298.38445115 450.98716168 301.04675112 455.36718602 303.7109375 459.74609375 C304.87067036 461.65306325 306.03033105 463.56007661 307.18997192 465.46710205 C307.92833739 466.68094975 308.66699695 467.89461861 309.40597534 469.10809326 C310.43426817 470.79680072 311.46129659 472.48627791 312.48828125 474.17578125 C313.36286987 475.61304565 313.36286987 475.61304565 314.25512695 477.0793457 C316.21497034 480.35982793 318.10409025 483.68215793 320 487 C291.29 487 262.58 487 233 487 C225.08 473.14 225.08 473.14 217 459 C212.20757806 450.85718521 212.20757806 450.85718521 207.39453125 442.7265625 C203.48726546 436.14529429 199.61842615 429.54163167 195.75 422.9375 C195.0276101 421.70482097 194.30519791 420.472155 193.58276367 419.23950195 C190.30002078 413.63755022 187.01940924 408.03436269 183.74330139 402.42852783 C182.30935388 399.97515147 180.87462302 397.52223409 179.43954468 395.06951904 C178.73315263 393.86215424 178.02695368 392.65467643 177.32095337 391.44708252 C173.45465526 384.83647703 169.55979873 378.24508946 165.59765625 371.69140625 C165.06785156 370.81405319 165.06785156 370.81405319 164.52734375 369.91897583 C162.84729093 367.1383654 161.16184864 364.36126016 159.46826172 361.58886719 C158.87932129 360.61723633 158.29038086 359.64560547 157.68359375 358.64453125 C156.90326782 357.36606323 156.90326782 357.36606323 156.10717773 356.06176758 C155 354 155 354 155 352 C154.08863281 352.19335938 153.17726563 352.38671875 152.23828125 352.5859375 C124.68531521 358.12394659 98.32193409 357 70 357 C70 399.9 70 442.8 70 487 C46.9 487 23.8 487 0 487 C0 326.29 0 165.58 0 0 Z " fill="#FEFEFE" transform="translate(1224,265)"/>
<path d="M0 0 C23.1 0 46.2 0 70 0 C70 97.35 70 194.7 70 295 C131.78529226 293.58811848 131.78529226 293.58811848 182.4609375 261.9453125 C191.52435808 251.43174463 198.32048316 239.61470916 204 227 C204.52078125 225.85789062 205.0415625 224.71578125 205.578125 223.5390625 C215.59330833 200.08244892 220.25079939 174.30572321 224.10058594 149.21508789 C224.89859447 144.10140553 224.89859447 144.10140553 226 143 C228.23929886 142.90563471 230.4816175 142.88257673 232.72290039 142.88647461 C233.4253035 142.88632858 234.1277066 142.88618256 234.85139465 142.8860321 C237.18351278 142.88673128 239.515552 142.89452383 241.84765625 142.90234375 C243.46048438 142.90420792 245.07331307 142.90563182 246.68614197 142.90663147 C250.93915357 142.91045677 255.19213124 142.92028715 259.44512939 142.93133545 C263.7817743 142.94154931 268.11842467 142.94612904 272.45507812 142.95117188 C280.97006769 142.96190941 289.48502963 142.97898597 298 143 C297.69429356 145.67440504 297.38615274 148.34849355 297.07666016 151.02246094 C296.99154678 151.76926117 296.90643341 152.5160614 296.81874084 153.28549194 C295.96113545 160.66435182 294.7458864 167.94786549 293.375 175.25 C293.24850067 175.9251062 293.12200134 176.6002124 292.9916687 177.29577637 C285.19735428 218.486834 271.49601793 259.29270415 246 293 C245.30390625 293.92296875 244.6078125 294.8459375 243.890625 295.796875 C227.98536585 316.00731707 227.98536585 316.00731707 220 320 C221.53406971 325.71372071 224.41688446 330.19138509 227.5625 335.125 C228.74345662 337.00441146 229.92307428 338.88466474 231.1015625 340.765625 C232.04757324 342.27286133 232.04757324 342.27286133 233.01269531 343.81054688 C236.53785069 349.46811811 239.98509432 355.1728869 243.4375 360.875 C244.16722763 362.07883065 244.89704552 363.28260659 245.62695312 364.48632812 C247.06768628 366.86244643 248.50809714 369.23875958 249.94824219 371.61523438 C257.85944759 384.66627574 265.80424382 397.69576583 273.8125 410.6875 C281.17118711 422.62733928 288.46011432 434.60834783 295.72796631 446.60357666 C298.38445115 450.98716168 301.04675112 455.36718602 303.7109375 459.74609375 C304.87067036 461.65306325 306.03033105 463.56007661 307.18997192 465.46710205 C307.92833739 466.68094975 308.66699695 467.89461861 309.40597534 469.10809326 C310.43426817 470.79680072 311.46129659 472.48627791 312.48828125 474.17578125 C313.36286987 475.61304565 313.36286987 475.61304565 314.25512695 477.0793457 C316.21497034 480.35982793 318.10409025 483.68215793 320 487 C291.29 487 262.58 487 233 487 C225.08 473.14 225.08 473.14 217 459 C212.20757806 450.85718521 212.20757806 450.85718521 207.39453125 442.7265625 C203.48726546 436.14529429 199.61842615 429.54163167 195.75 422.9375 C195.0276101 421.70482097 194.30519791 420.472155 193.58276367 419.23950195 C190.30002078 413.63755022 187.01940924 408.03436269 183.74330139 402.42852783 C182.30935388 399.97515147 180.87462302 397.52223409 179.43954468 395.06951904 C178.73315263 393.86215424 178.02695368 392.65467643 177.32095337 391.44708252 C173.45465526 384.83647703 169.55979873 378.24508946 165.59765625 371.69140625 C165.06785156 370.81405319 165.06785156 370.81405319 164.52734375 369.91897583 C162.84729093 367.1383654 161.16184864 364.36126016 159.46826172 361.58886719 C158.87932129 360.61723633 158.29038086 359.64560547 157.68359375 358.64453125 C156.90326782 357.36606323 156.90326782 357.36606323 156.10717773 356.06176758 C155 354 155 354 155 352 C154.08863281 352.19335938 153.17726563 352.38671875 152.23828125 352.5859375 C124.68531521 358.12394659 98.32193409 357 70 357 C70 399.9 70 442.8 70 487 C46.9 487 23.8 487 0 487 C0 326.29 0 165.58 0 0 Z " fill="#FEFEFE" transform="translate(833,265)"/>
<path d="M0 0 C0.66 0 1.32 0 2 0 C5.32311134 12.02496987 8.18375513 24.13653619 10.98046875 36.29296875 C11.46708325 38.39935978 11.95393176 40.50569677 12.44099426 42.61198425 C13.7531921 48.28929048 15.06234978 53.96729369 16.37091064 59.64543915 C17.74490846 65.60533056 19.12154394 71.56461255 20.49804688 77.52392578 C22.22095056 84.98340479 23.94366682 92.44292669 25.66525269 99.90270996 C29.53016222 116.64806567 33.40614641 133.39082591 37.29015541 150.13176155 C38.16770492 153.91440605 39.04498634 157.69711261 39.92216492 161.47984314 C40.34952737 163.32277938 40.34952737 163.32277938 40.78552341 165.20294666 C41.35372786 167.65327221 41.92192644 170.10359912 42.49011898 172.55392742 C43.88121019 178.55253103 45.27291234 184.55099171 46.66586304 190.54916382 C47.97393752 196.18206325 49.28026917 201.8153641 50.58530235 207.44896889 C51.06467869 209.51689159 51.54470627 211.58466344 52.02543068 213.65227318 C52.68141603 216.47400821 53.33512665 219.29626094 53.98828125 222.11865234 C54.17923465 222.93753024 54.37018805 223.75640814 54.56692791 224.60010052 C55.51738701 228.71859189 56.35994306 232.8188061 57 237 C57.59957531 237.04921079 58.19915063 237.09842158 58.81689489 237.14912361 C65.15557089 237.71938723 71.30710447 238.71923314 77.54165649 239.98048401 C78.55475462 240.1814325 79.56785275 240.38238099 80.61165082 240.58941883 C83.98111377 241.25894789 87.34917901 241.93525357 90.71728516 242.61157227 C93.14229299 243.09488226 95.56738475 243.57777137 97.99255371 244.06027222 C103.20077259 245.09745634 108.40839774 246.13754741 113.61549759 247.18033028 C121.14394458 248.68798485 128.67344457 250.19032419 136.20320599 251.69139849 C148.42186251 254.12736286 160.63966549 256.56758054 172.85693359 259.01049805 C184.71976735 261.38253471 196.58300149 263.75255258 208.44677734 266.11987305 C209.17895102 266.26597311 209.9111247 266.41207317 210.66548546 266.5626005 C214.33885408 267.29558224 218.01223058 268.02852448 221.68561101 268.76144707 C252.1249651 274.83484074 282.56292009 280.91521887 313 287 C312.67 287.66 312.34 288.32 312 289 C310.24073404 289.57541049 310.24073404 289.57541049 307.89452267 290.04258156 C307.00426575 290.22421683 306.11400883 290.4058521 305.19677442 290.59299147 C304.20749545 290.78560415 303.21821648 290.97821683 302.19895935 291.17666626 C301.15679907 291.38663628 300.1146388 291.5966063 299.04089791 291.81293905 C295.52162013 292.51977749 291.99999573 293.21415284 288.47827148 293.90869141 C285.96569207 294.41069996 283.45326455 294.91346926 280.940979 295.41694641 C275.51810034 296.50193305 270.09420179 297.58158205 264.66930962 298.65645218 C256.82576009 300.21055653 248.98413126 301.77417361 241.14294387 303.34014694 C228.4222418 305.88034419 215.70001168 308.41280145 202.97680664 310.94042969 C190.61467024 313.39634415 178.25326346 315.85587971 165.89282227 318.3203125 C164.75069054 318.54802949 164.75069054 318.54802949 163.58548545 318.78034683 C159.76580605 319.5419337 155.94614091 320.30359204 152.12648284 321.06528592 C120.41985721 327.38793963 88.71074702 333.69804809 57 340 C56.65532936 341.49419732 56.65532936 341.49419732 56.30369568 343.01858044 C36.65509144 428.19695045 36.65509144 428.19695045 28 465.58203125 C27.55408005 467.50823618 27.55408005 467.50823618 27.09915161 469.47335434 C24.76631439 479.54990848 22.43279492 489.62630458 20.09899902 499.70263672 C18.30484761 507.44902416 16.51106228 515.19549618 14.71777344 522.94208336 C13.91115198 526.42589044 13.10402874 529.90958098 12.296875 533.39326477 C11.7994212 535.54186687 11.30202382 537.69048203 10.8046875 539.83911133 C10.56836609 540.85912641 10.33204468 541.87914148 10.08856201 542.93006611 C8.89712063 548.08200731 7.71852314 553.23648993 6.55957031 558.39584351 C6.32972443 559.41710925 6.09987854 560.438375 5.86306763 561.49058819 C5.4284864 563.42546683 4.99613768 565.3608487 4.56637573 567.29680347 C4.27852707 568.5783508 4.27852707 568.5783508 3.98486328 569.88578796 C3.81802032 570.6352151 3.65117737 571.38464224 3.47927856 572.15677929 C3 574 3 574 2 576 C1.34 576 0.68 576 0 576 C-4.0021472 561.85031983 -7.18577482 547.49919699 -10.47646761 533.17189288 C-11.3322932 529.44839036 -12.19115544 525.7255882 -13.0496521 522.00270081 C-14.69113617 514.8823615 -16.3300308 507.76142887 -17.96794832 500.64026839 C-19.76092225 492.84543127 -21.55646506 485.05118692 -23.3523984 477.2570312 C-25.67247379 467.18809707 -27.99207277 457.11905345 -30.31011963 447.0496521 C-35.89427777 422.79302323 -41.48804519 398.53861909 -47.0859375 374.28515625 C-47.28734738 373.41251467 -47.48875726 372.5398731 -47.69627047 371.64078784 C-50.13057729 361.0937963 -52.56513513 350.54686273 -55 340 C-55.53919254 339.89284499 -56.07838508 339.78568998 -56.6339168 339.67528784 C-88.55972462 333.3303685 -120.48373024 326.97647035 -152.40541359 320.61083487 C-156.2345367 319.84726164 -160.06367484 319.08376378 -163.89282227 318.3203125 C-164.65516672 318.16831577 -165.41751118 318.01631903 -166.20295698 317.85971634 C-178.56208987 315.39573149 -190.92243113 312.93786063 -203.28322624 310.48222978 C-215.95759722 307.9641623 -228.63065549 305.4395692 -241.30250794 302.9088577 C-249.12770983 301.34629254 -256.95390228 299.78888402 -264.78142095 298.23796545 C-270.77390303 297.05006931 -276.76453869 295.85311816 -282.75452423 294.65268898 C-285.21909888 294.16027168 -287.68427392 293.67084905 -290.15006447 293.18455696 C-293.50133851 292.52318095 -296.85033961 291.85133192 -300.19895935 291.17666626 C-301.18823832 290.98405358 -302.1775173 290.7914409 -303.19677442 290.59299147 C-304.08703134 290.4113562 -304.97728826 290.22972093 -305.89452267 290.04258156 C-306.66877242 289.8884151 -307.44302217 289.73424865 -308.24073404 289.57541049 C-309.11157069 289.2905823 -309.11157069 289.2905823 -310 289 C-310.33 288.34 -310.66 287.68 -311 287 C-294.1462377 283.62297985 -277.29203575 280.24815774 -260.4375 276.875 C-259.16221561 276.61977192 -257.88693123 276.36454384 -256.57300186 276.10158157 C-211.48566139 267.07878666 -166.38744899 258.11193252 -121.28100586 249.18505859 C-120.16366751 248.96390475 -119.04632915 248.74275091 -117.89513206 248.51489544 C-112.72524557 247.49164086 -107.55530459 246.46866452 -102.38519287 245.44654846 C-86.58536065 242.32148801 -70.79226339 239.16304741 -55 236 C-54.84928449 235.34689944 -54.69856897 234.69379889 -54.54328632 234.0209074 C-54.21916909 232.61639938 -54.21916909 232.61639938 -53.88850403 231.18351746 C-53.6412281 230.11198771 -53.39395218 229.04045797 -53.13918304 227.93645763 C-52.56933977 225.46713831 -51.99949515 222.9978193 -51.42964935 220.52850056 C-49.94961888 214.11506363 -48.4696016 207.70162365 -46.98963231 201.2881726 C-46.10247097 197.4436595 -45.21530024 193.59914857 -44.328125 189.75463867 C-44.14596644 188.9652672 -43.96380788 188.17589572 -43.77612936 187.3626039 C-41.13277961 175.90791027 -38.48895939 164.4533253 -35.84485173 152.9988066 C-34.14255681 145.62422858 -32.44039869 138.24961898 -30.73828125 130.875 C-30.55035523 130.06080023 -30.36242921 129.24660045 -30.16880846 128.40772796 C-25.42063111 107.83575705 -20.67698877 87.26275881 -15.94431114 66.68721581 C-14.47071045 60.28155819 -12.99592029 53.87617429 -11.52115726 47.47078419 C-10.18461712 41.66487468 -8.85033103 35.85845292 -7.51768208 30.05164909 C-6.71016776 26.53534751 -5.90060826 23.01951932 -5.09043312 19.50382996 C-4.72282715 17.90660797 -4.35611052 16.30918098 -3.99036217 14.71153259 C-3.50175285 12.57757309 -3.01007746 10.44434379 -2.51757812 8.3112793 C-2.24627075 7.13043259 -1.97496338 5.94958588 -1.69543457 4.73295593 C-1 2 -1 2 0 0 Z " fill="#153D63" transform="translate(2009,6)"/>
<path d="M0 0 C0.7827832 -0.00067474 1.56556641 -0.00134949 2.37207031 -0.00204468 C14.56325906 0.01464148 26.31537225 0.56438124 38.25 3.25 C39.03681152 3.42160645 39.82362305 3.59321289 40.63427734 3.77001953 C73.70476299 11.17563759 103.61222263 29.22314092 122.046875 58.28076172 C129.62374258 70.68234733 135.28069884 83.27883004 139.25 97.25 C139.44287598 97.91032227 139.63575195 98.57064453 139.83447266 99.25097656 C143.13470129 110.70826552 144.87949843 122.42029928 146.25 134.25 C146.33447388 134.96342056 146.41894775 135.67684113 146.50598145 136.41188049 C147.19179935 142.61933447 147.39640766 148.73843128 147.3828125 154.98046875 C147.38424759 156.47070305 147.38424759 156.47070305 147.38571167 157.99104309 C147.38638791 160.08102482 147.3845727 162.17100871 147.38037109 164.26098633 C147.37504367 167.41167074 147.38032043 170.56221074 147.38671875 173.71289062 C147.39762611 202.80712167 147.39762611 202.80712167 145.25 209.25 C68.69 209.25 -7.87 209.25 -86.75 209.25 C-82.33899953 225.34782214 -82.33899953 225.34782214 -75.75 240.25 C-75.23824219 241.25417969 -74.72648438 242.25835938 -74.19921875 243.29296875 C-62.03934242 265.72634442 -38.88037837 281.70459861 -14.82910156 289.15478516 C25.06532513 300.38738129 66.77131337 296.49733789 107.06933594 289.52026367 C112.21267819 288.64497368 117.03183674 288.03835422 122.25 288.25 C124.49137493 301.79013872 126.60046245 315.34511945 128.5 328.9375 C128.67499023 330.17137451 128.84998047 331.40524902 129.03027344 332.67651367 C129.27052246 334.42025269 129.27052246 334.42025269 129.515625 336.19921875 C129.65774414 337.22362061 129.79986328 338.24802246 129.94628906 339.3034668 C130.25591828 342.30741776 130.30282723 345.23238506 130.25 348.25 C114.51295097 351.70626778 98.59024211 353.80243831 82.5625 355.375 C81.42723877 355.48823608 81.42723877 355.48823608 80.26904297 355.60375977 C64.71179948 357.04148377 49.11597376 357.45948083 33.5 357.4375 C32.62914764 357.43656342 31.75829529 357.43562683 30.86105347 357.43466187 C-22.96456097 357.30976788 -73.00374472 344.99599904 -112.4765625 306.59765625 C-123.25579026 295.21958251 -131.36252447 282.15178914 -137.93164062 267.99121094 C-138.63632018 266.49187485 -139.38448277 265.01311504 -140.140625 263.5390625 C-163.58515287 216.50162368 -160.1817881 149.09125635 -144.82275391 100.3046875 C-132.28173551 63.23688349 -108.57109063 33.35241783 -73.75 15.25 C-72.83992187 14.76789063 -71.92984375 14.28578125 -70.9921875 13.7890625 C-56.62689159 6.71899524 -40.52632992 3.31562091 -24.75 1.25 C-23.50669922 1.07799072 -22.26339844 0.90598145 -20.98242188 0.72875977 C-14.02329593 -0.13337015 -7.0021937 0.00540859 0 0 Z M-62.51416016 85.23828125 C-79.27097542 103.67940076 -89.75 131.38859282 -89.75 156.25 C-32.33 156.25 25.09 156.25 84.25 156.25 C83.76243738 140.99265848 83.76243738 140.99265848 81.625 126.0625 C81.45170166 125.24628174 81.27840332 124.43006348 81.09985352 123.58911133 C76.5620707 103.62480201 66.00932283 84.59359416 48.53076172 73.12158203 C14.6787582 52.28607892 -34.41575099 56.4310323 -62.51416016 85.23828125 Z " fill="#FEFEFE" transform="translate(587.75,401.75)"/>
<path d="M0 0 C3.4452254 3.14291258 6.39799526 6.56103727 9.359375 10.15234375 C9.89691406 10.72984375 10.43445312 11.30734375 10.98828125 11.90234375 C32.08916837 34.61884403 41.90537143 65.28447175 47.359375 95.15234375 C47.60929199 96.47613037 47.60929199 96.47613037 47.86425781 97.82666016 C53.3514191 128.38094645 53.08458396 163.66071866 47.359375 194.15234375 C47.18776855 195.11060059 47.01616211 196.06885742 46.83935547 197.05615234 C42.45187096 221.0089163 34.5637266 245.12509025 20.359375 265.15234375 C19.64394531 266.16425781 18.92851563 267.17617188 18.19140625 268.21875 C3.26786725 288.71258308 -16.24667572 303.46605982 -39.640625 313.15234375 C-40.45144531 313.49910156 -41.26226563 313.84585937 -42.09765625 314.203125 C-79.88078056 329.23512069 -128.07782137 326.45108461 -165.265625 311.65234375 C-199.49133406 296.38689965 -223.68180516 268.56336202 -237.640625 234.15234375 C-246.87832471 209.86452501 -251.70940432 183.22974798 -251.84375 157.24609375 C-251.85076431 156.33151398 -251.85777863 155.4169342 -251.86500549 154.47463989 C-251.88242639 151.53382388 -251.88885927 148.59320949 -251.890625 145.65234375 C-251.89163712 144.14302277 -251.89163712 144.14302277 -251.89266968 142.60321045 C-251.8759825 126.93192761 -251.38247436 111.62172408 -248.640625 96.15234375 C-248.46901855 95.17797363 -248.29741211 94.20360352 -248.12060547 93.19970703 C-244.44587951 73.15126918 -238.58016673 53.99361321 -228.640625 36.15234375 C-228.29273926 35.51603027 -227.94485352 34.8797168 -227.58642578 34.22412109 C-222.27581843 24.59211334 -216.0795537 16.24072421 -208.640625 8.15234375 C-207.85042969 7.27964844 -207.06023437 6.40695312 -206.24609375 5.5078125 C-184.68757679 -17.19477169 -156.01330532 -28.21602675 -125.640625 -32.84765625 C-124.9585498 -32.95223145 -124.27647461 -33.05680664 -123.57373047 -33.16455078 C-79.44926948 -38.98327541 -34.26134419 -28.83832077 0 0 Z M-152.140625 49.4453125 C-152.635625 50.00863281 -153.130625 50.57195312 -153.640625 51.15234375 C-154.115 51.68472656 -154.589375 52.21710938 -155.078125 52.765625 C-180.09639378 83.42660114 -182.25142627 129.97395994 -178.91357422 167.53027344 C-175.94615291 196.03662837 -168.27671898 226.70606748 -145.640625 246.15234375 C-134.74993007 254.87189313 -121.74078467 260.85727314 -107.640625 261.15234375 C-106.02220703 261.21035156 -106.02220703 261.21035156 -104.37109375 261.26953125 C-84.95184554 261.65491876 -67.33350974 257.2281308 -52.640625 244.15234375 C-46.5415786 237.88363135 -41.81819254 230.80712192 -37.640625 223.15234375 C-37.22296875 222.42144531 -36.8053125 221.69054687 -36.375 220.9375 C-25.26156912 200.36358524 -22.03715338 176.22216131 -21.640625 153.15234375 C-21.62547852 152.43916992 -21.61033203 151.72599609 -21.59472656 150.99121094 C-21.50159472 146.0415944 -21.53551491 141.10146361 -21.640625 136.15234375 C-21.65319336 135.42112305 -21.66576172 134.68990234 -21.67871094 133.93652344 C-22.33402983 102.97604925 -28.9664075 69.69239429 -51.640625 47.15234375 C-52.445 46.26546875 -53.249375 45.37859375 -54.078125 44.46484375 C-64.6708105 34.90559098 -78.15168492 28.25794827 -92.640625 28.15234375 C-94.49300781 28.09626953 -94.49300781 28.09626953 -96.3828125 28.0390625 C-118.26362109 27.53879503 -136.82471554 33.1353416 -152.140625 49.4453125 Z " fill="#FEFEFE" transform="translate(1858.640625,435.84765625)"/>
<path d="M0 0 C0.66 0 1.32 0 2 0 C5.32311134 12.02496987 8.18375513 24.13653619 10.98046875 36.29296875 C11.46708325 38.39935978 11.95393176 40.50569677 12.44099426 42.61198425 C13.7531921 48.28929048 15.06234978 53.96729369 16.37091064 59.64543915 C17.74490846 65.60533056 19.12154394 71.56461255 20.49804688 77.52392578 C22.22095056 84.98340479 23.94366682 92.44292669 25.66525269 99.90270996 C29.53016222 116.64806567 33.40614641 133.39082591 37.29015541 150.13176155 C38.16770492 153.91440605 39.04498634 157.69711261 39.92216492 161.47984314 C40.34952737 163.32277938 40.34952737 163.32277938 40.78552341 165.20294666 C41.35372786 167.65327221 41.92192644 170.10359912 42.49011898 172.55392742 C43.88121019 178.55253103 45.27291234 184.55099171 46.66586304 190.54916382 C47.97393752 196.18206325 49.28026917 201.8153641 50.58530235 207.44896889 C51.06467869 209.51689159 51.54470627 211.58466344 52.02543068 213.65227318 C52.68141603 216.47400821 53.33512665 219.29626094 53.98828125 222.11865234 C54.17923465 222.93753024 54.37018805 223.75640814 54.56692791 224.60010052 C55.51738701 228.71859189 56.35994306 232.8188061 57 237 C57.59957531 237.04921079 58.19915063 237.09842158 58.81689489 237.14912361 C65.15557089 237.71938723 71.30710447 238.71923314 77.54165649 239.98048401 C78.55475462 240.1814325 79.56785275 240.38238099 80.61165082 240.58941883 C83.98111377 241.25894789 87.34917901 241.93525357 90.71728516 242.61157227 C93.14229299 243.09488226 95.56738475 243.57777137 97.99255371 244.06027222 C103.20077259 245.09745634 108.40839774 246.13754741 113.61549759 247.18033028 C121.14394458 248.68798485 128.67344457 250.19032419 136.20320599 251.69139849 C148.42186251 254.12736286 160.63966549 256.56758054 172.85693359 259.01049805 C184.71976735 261.38253471 196.58300149 263.75255258 208.44677734 266.11987305 C209.17895102 266.26597311 209.9111247 266.41207317 210.66548546 266.5626005 C214.33885408 267.29558224 218.01223058 268.02852448 221.68561101 268.76144707 C252.1249651 274.83484074 282.56292009 280.91521887 313 287 C312.67 287.66 312.34 288.32 312 289 C310.24073404 289.57541049 310.24073404 289.57541049 307.89452267 290.04258156 C307.00426575 290.22421683 306.11400883 290.4058521 305.19677442 290.59299147 C304.20749545 290.78560415 303.21821648 290.97821683 302.19895935 291.17666626 C301.15679907 291.38663628 300.1146388 291.5966063 299.04089791 291.81293905 C295.52162013 292.51977749 291.99999573 293.21415284 288.47827148 293.90869141 C285.96569207 294.41069996 283.45326455 294.91346926 280.940979 295.41694641 C275.51810034 296.50193305 270.09420179 297.58158205 264.66930962 298.65645218 C256.82576009 300.21055653 248.98413126 301.77417361 241.14294387 303.34014694 C228.4222418 305.88034419 215.70001168 308.41280145 202.97680664 310.94042969 C190.61467024 313.39634415 178.25326346 315.85587971 165.89282227 318.3203125 C164.75069054 318.54802949 164.75069054 318.54802949 163.58548545 318.78034683 C159.76580605 319.5419337 155.94614091 320.30359204 152.12648284 321.06528592 C120.41985721 327.38793963 88.71074702 333.69804809 57 340 C56.65532936 341.49419732 56.65532936 341.49419732 56.30369568 343.01858044 C36.65509144 428.19695045 36.65509144 428.19695045 28 465.58203125 C27.55408005 467.50823618 27.55408005 467.50823618 27.09915161 469.47335434 C24.76631439 479.54990848 22.43279492 489.62630458 20.09899902 499.70263672 C18.30484761 507.44902416 16.51106228 515.19549618 14.71777344 522.94208336 C13.91115198 526.42589044 13.10402874 529.90958098 12.296875 533.39326477 C11.7994212 535.54186687 11.30202382 537.69048203 10.8046875 539.83911133 C10.56836609 540.85912641 10.33204468 541.87914148 10.08856201 542.93006611 C8.89712063 548.08200731 7.71852314 553.23648993 6.55957031 558.39584351 C6.32972443 559.41710925 6.09987854 560.438375 5.86306763 561.49058819 C5.4284864 563.42546683 4.99613768 565.3608487 4.56637573 567.29680347 C4.27852707 568.5783508 4.27852707 568.5783508 3.98486328 569.88578796 C3.81802032 570.6352151 3.65117737 571.38464224 3.47927856 572.15677929 C3 574 3 574 2 576 C1.34 576 0.68 576 0 576 C-4.0021472 561.85031983 -7.18577482 547.49919699 -10.47646761 533.17189288 C-11.3322932 529.44839036 -12.19115544 525.7255882 -13.0496521 522.00270081 C-14.69113617 514.8823615 -16.3300308 507.76142887 -17.96794832 500.64026839 C-19.76092225 492.84543127 -21.55646506 485.05118692 -23.3523984 477.2570312 C-25.67247379 467.18809707 -27.99207277 457.11905345 -30.31011963 447.0496521 C-35.89427777 422.79302323 -41.48804519 398.53861909 -47.0859375 374.28515625 C-47.28734738 373.41251467 -47.48875726 372.5398731 -47.69627047 371.64078784 C-50.13057729 361.0937963 -52.56513513 350.54686273 -55 340 C-55.53919254 339.89284499 -56.07838508 339.78568998 -56.6339168 339.67528784 C-88.55972462 333.3303685 -120.48373024 326.97647035 -152.40541359 320.61083487 C-156.2345367 319.84726164 -160.06367484 319.08376378 -163.89282227 318.3203125 C-164.65516672 318.16831577 -165.41751118 318.01631903 -166.20295698 317.85971634 C-178.56208987 315.39573149 -190.92243113 312.93786063 -203.28322624 310.48222978 C-215.95759722 307.9641623 -228.63065549 305.4395692 -241.30250794 302.9088577 C-249.12770983 301.34629254 -256.95390228 299.78888402 -264.78142095 298.23796545 C-270.77390303 297.05006931 -276.76453869 295.85311816 -282.75452423 294.65268898 C-285.21909888 294.16027168 -287.68427392 293.67084905 -290.15006447 293.18455696 C-293.50133851 292.52318095 -296.85033961 291.85133192 -300.19895935 291.17666626 C-301.18823832 290.98405358 -302.1775173 290.7914409 -303.19677442 290.59299147 C-304.08703134 290.4113562 -304.97728826 290.22972093 -305.89452267 290.04258156 C-306.66877242 289.8884151 -307.44302217 289.73424865 -308.24073404 289.57541049 C-309.11157069 289.2905823 -309.11157069 289.2905823 -310 289 C-310.33 288.34 -310.66 287.68 -311 287 C-294.1462377 283.62297985 -277.29203575 280.24815774 -260.4375 276.875 C-259.16221561 276.61977192 -257.88693123 276.36454384 -256.57300186 276.10158157 C-211.48566139 267.07878666 -166.38744899 258.11193252 -121.28100586 249.18505859 C-120.16366751 248.96390475 -119.04632915 248.74275091 -117.89513206 248.51489544 C-112.72524557 247.49164086 -107.55530459 246.46866452 -102.38519287 245.44654846 C-86.58536065 242.32148801 -70.79226339 239.16304741 -55 236 C-54.84928449 235.34689944 -54.69856897 234.69379889 -54.54328632 234.0209074 C-54.21916909 232.61639938 -54.21916909 232.61639938 -53.88850403 231.18351746 C-53.6412281 230.11198771 -53.39395218 229.04045797 -53.13918304 227.93645763 C-52.56933977 225.46713831 -51.99949515 222.9978193 -51.42964935 220.52850056 C-49.94961888 214.11506363 -48.4696016 207.70162365 -46.98963231 201.2881726 C-46.10247097 197.4436595 -45.21530024 193.59914857 -44.328125 189.75463867 C-44.14596644 188.9652672 -43.96380788 188.17589572 -43.77612936 187.3626039 C-41.13277961 175.90791027 -38.48895939 164.4533253 -35.84485173 152.9988066 C-34.14255681 145.62422858 -32.44039869 138.24961898 -30.73828125 130.875 C-30.55035523 130.06080023 -30.36242921 129.24660045 -30.16880846 128.40772796 C-25.42063111 107.83575705 -20.67698877 87.26275881 -15.94431114 66.68721581 C-14.47071045 60.28155819 -12.99592029 53.87617429 -11.52115726 47.47078419 C-10.18461712 41.66487468 -8.85033103 35.85845292 -7.51768208 30.05164909 C-6.71016776 26.53534751 -5.90060826 23.01951932 -5.09043312 19.50382996 C-4.72282715 17.90660797 -4.35611052 16.30918098 -3.99036217 14.71153259 C-3.50175285 12.57757309 -3.01007746 10.44434379 -2.51757812 8.3112793 C-2.24627075 7.13043259 -1.97496338 5.94958588 -1.69543457 4.73295593 C-1 2 -1 2 0 0 Z M0 38 C-3.04617115 49.08773401 -5.7478849 60.22985921 -8.3125 71.4375 C-8.70885868 73.16032921 -9.10526244 74.88314804 -9.50170898 76.60595703 C-12.22690859 88.47872187 -14.83563724 100.37381918 -17.40551758 112.28100586 C-19.61204297 122.4208631 -22.03078224 132.49858881 -24.51052856 142.57440186 C-27.15706581 153.34040181 -29.59791087 164.13731278 -31.92422485 174.97665405 C-34.17903159 185.46478674 -36.62894979 195.89448155 -39.1875 206.3125 C-41.39589987 215.3111818 -43.58747164 224.30770213 -45.5 233.375 C-45.66008545 234.12950439 -45.8201709 234.88400879 -45.98510742 235.66137695 C-46.56889696 238.50248604 -47 241.09040221 -47 244 C-47.75314106 244.10806913 -48.50628212 244.21613827 -49.28224564 244.32748222 C-58.2371294 245.65403166 -67.10069323 247.33955952 -75.97167969 249.12939453 C-77.53261861 249.44208039 -79.09360958 249.75450655 -80.65464783 250.06669617 C-83.99632221 250.73556862 -87.33762531 251.40625496 -90.67864227 252.07840347 C-96.00834421 253.15062878 -101.33886964 254.21872105 -106.66949463 255.28634644 C-115.14883218 256.98510581 -123.6276113 258.68663438 -132.10615945 260.38932884 C-147.16363637 263.41315488 -162.22200545 266.43253223 -177.28064847 269.45054519 C-182.53038542 270.50279783 -187.77986722 271.55631077 -193.02913117 272.61092031 C-217.33612589 277.49344894 -241.66187994 282.27511664 -266 287 C-266 287.66 -266 288.32 -266 289 C-260.22349693 290.14499253 -254.44699134 291.28997232 -248.67048454 292.43494606 C-245.39454346 293.08428186 -242.11860502 293.73363098 -238.84266663 294.38298035 C-226.61174665 296.80733346 -214.38075626 299.23133065 -202.1496582 301.65478516 C-197.01513086 302.67217097 -191.88061016 303.68959025 -186.74609375 304.70703125 C-186.09860019 304.83533451 -185.45110663 304.96363777 -184.78399205 305.09582901 C-167.0811132 308.60374866 -149.37895274 312.11525747 -131.67767334 315.63124084 C-123.04955392 317.3450169 -114.42119028 319.05756179 -105.79276276 320.76978588 C-99.9038944 321.93846613 -94.01517412 323.10788278 -88.12677002 324.27890015 C-82.6013798 325.37772547 -77.07564969 326.47482443 -71.54965019 327.57058144 C-69.52060155 327.97326399 -67.4916849 328.37661228 -65.46290779 328.78066063 C-62.7076293 329.3293124 -59.95190181 329.87564888 -57.19604492 330.42138672 C-56.38619707 330.58323802 -55.57634922 330.74508932 -54.74196053 330.91184521 C-50.90035494 331.71193085 -50.90035494 331.71193085 -47 332 C-46.83951172 333.83691406 -46.83951172 333.83691406 -46.67578125 335.7109375 C-45.99714823 341.79367617 -44.59731261 347.67650035 -43.1875 353.625 C-42.78156616 355.36402588 -42.78156616 355.36402588 -42.36743164 357.13818359 C-40.98853959 362.9975517 -39.54576739 368.82469136 -37.9375 374.625 C-35.90924601 381.98057672 -34.40168032 389.42836964 -32.92553711 396.91259766 C-31.81626385 402.44174067 -30.5266555 407.87769399 -29.046875 413.3203125 C-27.01857956 420.78968139 -25.35232232 428.30456594 -23.75 435.875 C-21.35630995 447.04411781 -18.79497174 458.15909479 -16.0625 469.25 C-12.77093972 482.61483513 -9.71762551 496.02265692 -6.78930664 509.47167969 C-4.70205866 519.02852345 -2.42477725 528.52313569 0 538 C2.46364897 535.53635103 2.58068686 534.09152328 3.26171875 530.69921875 C3.48972168 529.59255859 3.71772461 528.48589844 3.95263672 527.34570312 C4.31639404 525.53489258 4.31639404 525.53489258 4.6875 523.6875 C5.22210949 521.10735624 5.75892062 518.52783364 6.30078125 515.94921875 C6.50930725 514.95485306 6.50930725 514.95485306 6.7220459 513.94039917 C8.13491508 507.2597116 9.74173032 500.62997154 11.375 494 C14.06780362 483.03028957 16.57673131 472.03173648 19 461 C21.64483526 448.96379846 24.42214555 436.97229922 27.35766602 425.00292969 C29.87031894 414.69133682 32.1655639 404.33763963 34.43682861 393.97091675 C36.27953521 385.57014377 38.16829354 377.18577147 40.21484375 368.83203125 C40.39669724 368.08950104 40.57855072 367.34697083 40.76591492 366.5819397 C41.62943589 363.06735202 42.50208892 359.55529155 43.38647461 356.04589844 C45.36710981 348.0703913 46.90859518 340.14600497 48 332 C49.20011719 331.89042969 50.40023437 331.78085937 51.63671875 331.66796875 C58.10431433 330.94570559 64.44065072 329.61317943 70.8125 328.3125 C72.15849777 328.04053723 73.50452707 327.76873049 74.85058594 327.49707031 C83.16455275 325.81280244 91.46054347 324.05092257 99.75 322.25 C112.14504911 319.56250457 124.57094573 317.03516251 137.0057373 314.53894043 C139.16959407 314.10447563 141.33325786 313.66904836 143.4967041 313.23254395 C154.14856477 311.08536381 164.79858774 309.00674017 175.515625 307.2109375 C192.3413065 304.36712618 209.02941862 300.7659302 225.73712158 297.30834961 C230.28970592 296.36702462 234.84313458 295.4298015 239.39648438 294.4921875 C248.26513313 292.66537191 257.13286817 290.83416338 266 289 C266 288.34 266 287.68 266 287 C265.37313293 286.87551483 264.74626587 286.75102966 264.10040283 286.62277222 C256.14963359 285.04336483 248.19960468 283.46025823 240.25 281.875 C238.9756308 281.62090363 237.7012616 281.36680725 236.38827515 281.10501099 C232.5593653 280.34086278 228.73080725 279.57497479 224.90234375 278.80859375 C223.72806824 278.57433685 222.55379272 278.34007996 221.34393311 278.09872437 C213.14941666 276.45599625 204.97765889 274.72011466 196.8125 272.9375 C183.58386544 270.05167149 170.28937197 267.5427013 156.98794556 265.01760864 C141.37223925 262.04901795 125.78340989 258.96454852 110.20703125 255.796875 C109.31178427 255.61490444 108.41653728 255.43293388 107.49416161 255.24544907 C98.47191055 253.41103697 89.45084459 251.57094145 80.43187237 249.72047424 C77.03972725 249.02518448 73.64698008 248.332865 70.25411034 247.64112091 C68.65919484 247.31511637 67.06457548 246.98765938 65.47027016 246.65868378 C63.27450094 246.2056333 61.07781332 245.75732291 58.88085938 245.31005859 C57.64315796 245.05598236 56.40545654 244.80190613 55.13024902 244.54013062 C51.87245971 243.88664057 51.87245971 243.88664057 48 244 C47.89333008 243.22035889 47.78666016 242.44071777 47.67675781 241.63745117 C46.48673091 233.39130083 44.772577 225.39061712 42.75 217.3125 C42.1161322 214.73332512 41.48328376 212.15391831 40.8515625 209.57421875 C40.53735352 208.29466309 40.22314453 207.01510742 39.89941406 205.69677734 C37.80485806 197.08772005 35.85373417 188.44504705 33.87597656 179.80859375 C32.86964747 175.43324986 31.85320316 171.06031109 30.8359375 166.6875 C27.07365548 150.49681161 23.37975961 134.30335062 19.95922852 118.03662109 C18.51865064 111.24293493 16.87002994 104.5777002 14.99609375 97.890625 C13.31759211 91.61285847 12.15001322 85.20669886 10.85961914 78.84082031 C9.45591517 71.98741027 7.79993884 65.28950023 5.90625 58.5546875 C4.68202136 53.75275621 3.81745754 48.90432692 3.03857422 44.01171875 C2.75466862 42.32944054 2.38486064 40.66209045 2 39 C1.34 38.67 0.68 38.34 0 38 Z " fill="#042433" transform="translate(2009,6)"/>
</svg>
