<svg width="2300" height="1175" viewBox="0 0 2300 1175" fill="none" xmlns="http://www.w3.org/2000/svg">
<path d="M27 285C55.71 285 84.42 285 114 285C123.633 310.323 133.256 335.649 142.812 361C150.312 380.893 157.84 400.774 165.386 420.65C172.968 440.624 180.52 460.61 188.05 480.605C191.716 490.334 195.394 500.058 199.137 509.758C199.608 510.981 199.608 510.981 200.089 512.229C201.518 515.938 202.952 519.645 204.397 523.348C204.884 524.609 205.372 525.871 205.859 527.133C206.277 528.204 206.694 529.276 207.124 530.379C208 533 208 533 208 536C208.66 536 209.32 536 210 536C211.005 538.66 212.01 541.32 213.016 543.98C213.339 544.836 213.662 545.692 213.996 546.574C215.836 551.443 217.675 556.313 219.513 561.183C223.394 571.461 227.278 581.738 231.175 592.01C233.022 596.879 234.866 601.749 236.711 606.62C237.613 609.001 238.516 611.381 239.421 613.761C240.691 617.104 241.957 620.448 243.223 623.793C243.606 624.799 243.99 625.806 244.385 626.842C244.731 627.76 245.077 628.677 245.434 629.622C245.738 630.423 246.042 631.225 246.355 632.05C247 634 247 634 247 636C248.98 636 250.96 636 253 636C253 520.17 253 404.34 253 285C275.77 285 298.54 285 322 285C322 437.13 322 589.26 322 746C292.63 746 263.26 746 233 746C215.925 701.605 215.925 701.605 209.58 684.727C207.493 679.175 205.401 673.625 203.309 668.074C202.875 666.924 202.442 665.775 201.996 664.59C197.018 651.385 192.009 638.193 187 625C179.568 605.421 172.158 585.834 164.771 566.239C157.743 547.599 150.684 528.972 143.614 510.348C136.446 491.466 129.304 472.573 122.184 453.673C118.104 442.841 114.016 432.012 109.863 421.207C109.549 420.389 109.235 419.571 108.911 418.728C107.48 415.005 106.045 411.283 104.603 407.564C104.116 406.3 103.628 405.035 103.141 403.77C102.723 402.693 102.306 401.616 101.876 400.507C101 398 101 398 101 396C98.69 396 96.38 396 94 396C94 511.5 94 627 94 746C71.89 746 49.78 746 27 746C27 593.87 27 441.74 27 285Z" fill="#FEFEFE"/>
<path d="M1202 259C1225.1 259 1248.2 259 1272 259C1272 356.35 1272 453.7 1272 554C1333.79 552.588 1333.79 552.588 1384.46 520.945C1393.52 510.432 1400.32 498.615 1406 486C1406.52 484.858 1407.04 483.716 1407.58 482.539C1417.59 459.082 1422.25 433.306 1426.1 408.215C1426.9 403.101 1426.9 403.101 1428 402C1430.24 401.906 1432.48 401.883 1434.72 401.886C1435.43 401.886 1436.13 401.886 1436.85 401.886C1439.18 401.887 1441.52 401.895 1443.85 401.902C1445.46 401.904 1447.07 401.906 1448.69 401.907C1452.94 401.91 1457.19 401.92 1461.45 401.931C1465.78 401.942 1470.12 401.946 1474.46 401.951C1482.97 401.962 1491.49 401.979 1500 402C1499.69 404.674 1499.39 407.348 1499.08 410.022C1498.99 410.769 1498.91 411.516 1498.82 412.285C1497.96 419.664 1496.75 426.948 1495.38 434.25C1495.25 434.925 1495.12 435.6 1494.99 436.296C1487.2 477.487 1473.5 518.293 1448 552C1447.3 552.923 1446.61 553.846 1445.89 554.797C1429.99 575.007 1429.99 575.007 1422 579C1423.53 584.714 1426.42 589.191 1429.56 594.125C1430.74 596.004 1431.92 597.885 1433.1 599.766C1434.05 601.273 1434.05 601.273 1435.01 602.811C1438.54 608.468 1441.99 614.173 1445.44 619.875C1446.17 621.079 1446.9 622.283 1447.63 623.486C1449.07 625.862 1450.51 628.239 1451.95 630.615C1459.86 643.666 1467.8 656.696 1475.81 669.688C1483.17 681.627 1490.46 693.608 1497.73 705.604C1500.38 709.987 1503.05 714.367 1505.71 718.746C1506.87 720.653 1508.03 722.56 1509.19 724.467C1509.93 725.681 1510.67 726.895 1511.41 728.108C1512.43 729.797 1513.46 731.486 1514.49 733.176C1515.36 734.613 1515.36 734.613 1516.26 736.079C1518.21 739.36 1520.1 742.682 1522 746C1493.29 746 1464.58 746 1435 746C1427.08 732.14 1427.08 732.14 1419 718C1414.21 709.857 1414.21 709.857 1409.39 701.727C1405.49 695.145 1401.62 688.542 1397.75 681.938C1397.03 680.705 1396.31 679.472 1395.58 678.24C1392.3 672.638 1389.02 667.034 1385.74 661.429C1384.31 658.975 1382.87 656.522 1381.44 654.07C1380.73 652.862 1380.03 651.655 1379.32 650.447C1375.45 643.836 1371.56 637.245 1367.6 630.691C1367.07 629.814 1367.07 629.814 1366.53 628.919C1364.85 626.138 1363.16 623.361 1361.47 620.589C1360.88 619.617 1360.29 618.646 1359.68 617.645C1358.9 616.366 1358.9 616.366 1358.11 615.062C1357 613 1357 613 1357 611C1356.09 611.193 1355.18 611.387 1354.24 611.586C1326.69 617.124 1300.32 616 1272 616C1272 658.9 1272 701.8 1272 746C1248.9 746 1225.8 746 1202 746C1202 585.29 1202 424.58 1202 259Z" fill="#FEFEFE"/>
<path d="M811 259C834.1 259 857.2 259 881 259C881 356.35 881 453.7 881 554C942.785 552.588 942.785 552.588 993.461 520.945C1002.52 510.432 1009.32 498.615 1015 486C1015.52 484.858 1016.04 483.716 1016.58 482.539C1026.59 459.082 1031.25 433.306 1035.1 408.215C1035.9 403.101 1035.9 403.101 1037 402C1039.24 401.906 1041.48 401.883 1043.72 401.886C1044.43 401.886 1045.13 401.886 1045.85 401.886C1048.18 401.887 1050.52 401.895 1052.85 401.902C1054.46 401.904 1056.07 401.906 1057.69 401.907C1061.94 401.91 1066.19 401.92 1070.45 401.931C1074.78 401.942 1079.12 401.946 1083.46 401.951C1091.97 401.962 1100.49 401.979 1109 402C1108.69 404.674 1108.39 407.348 1108.08 410.022C1107.99 410.769 1107.91 411.516 1107.82 412.285C1106.96 419.664 1105.75 426.948 1104.38 434.25C1104.25 434.925 1104.12 435.6 1103.99 436.296C1096.2 477.487 1082.5 518.293 1057 552C1056.3 552.923 1055.61 553.846 1054.89 554.797C1038.99 575.007 1038.99 575.007 1031 579C1032.53 584.714 1035.42 589.191 1038.56 594.125C1039.74 596.004 1040.92 597.885 1042.1 599.766C1043.05 601.273 1043.05 601.273 1044.01 602.811C1047.54 608.468 1050.99 614.173 1054.44 619.875C1055.17 621.079 1055.9 622.283 1056.63 623.486C1058.07 625.862 1059.51 628.239 1060.95 630.615C1068.86 643.666 1076.8 656.696 1084.81 669.688C1092.17 681.627 1099.46 693.608 1106.73 705.604C1109.38 709.987 1112.05 714.367 1114.71 718.746C1115.87 720.653 1117.03 722.56 1118.19 724.467C1118.93 725.681 1119.67 726.895 1120.41 728.108C1121.43 729.797 1122.46 731.486 1123.49 733.176C1124.36 734.613 1124.36 734.613 1125.26 736.079C1127.21 739.36 1129.1 742.682 1131 746C1102.29 746 1073.58 746 1044 746C1036.08 732.14 1036.08 732.14 1028 718C1023.21 709.857 1023.21 709.857 1018.39 701.727C1014.49 695.145 1010.62 688.542 1006.75 681.938C1006.03 680.705 1005.31 679.472 1004.58 678.24C1001.3 672.638 998.019 667.034 994.743 661.429C993.309 658.975 991.875 656.522 990.44 654.07C989.733 652.862 989.027 651.655 988.321 650.447C984.455 643.836 980.56 637.245 976.598 630.691C976.068 629.814 976.068 629.814 975.527 628.919C973.847 626.138 972.162 623.361 970.468 620.589C969.879 619.617 969.29 618.646 968.684 617.645C967.903 616.366 967.903 616.366 967.107 615.062C966 613 966 613 966 611C965.089 611.193 964.177 611.387 963.238 611.586C935.685 617.124 909.322 616 881 616C881 658.9 881 701.8 881 746C857.9 746 834.8 746 811 746C811 585.29 811 424.58 811 259Z" fill="#FEFEFE"/>
<path d="M1987 0C1987.66 0 1988.32 0 1989 0C1992.32 12.025 1995.18 24.1365 1997.98 36.293C1998.47 38.3994 1998.95 40.5057 1999.44 42.612C2000.75 48.2893 2002.06 53.9673 2003.37 59.6454C2004.74 65.6053 2006.12 71.5646 2007.5 77.5239C2009.22 84.9834 2010.94 92.4429 2012.67 99.9027C2016.53 116.648 2020.41 133.391 2024.29 150.132C2025.17 153.914 2026.05 157.697 2026.92 161.48C2027.35 163.323 2027.35 163.323 2027.79 165.203C2028.35 167.653 2028.92 170.104 2029.49 172.554C2030.88 178.553 2032.27 184.551 2033.67 190.549C2034.97 196.182 2036.28 201.815 2037.59 207.449C2038.06 209.517 2038.54 211.585 2039.03 213.652C2039.68 216.474 2040.34 219.296 2040.99 222.119C2041.18 222.938 2041.37 223.756 2041.57 224.6C2042.52 228.719 2043.36 232.819 2044 237C2044.6 237.049 2045.2 237.098 2045.82 237.149C2052.16 237.719 2058.31 238.719 2064.54 239.98C2065.55 240.181 2066.57 240.382 2067.61 240.589C2070.98 241.259 2074.35 241.935 2077.72 242.612C2080.14 243.095 2082.57 243.578 2084.99 244.06C2090.2 245.097 2095.41 246.138 2100.62 247.18C2108.14 248.688 2115.67 250.19 2123.2 251.691C2135.42 254.127 2147.64 256.568 2159.86 259.01C2171.72 261.383 2183.58 263.753 2195.45 266.12C2196.18 266.266 2196.91 266.412 2197.67 266.563C2201.34 267.296 2205.01 268.029 2208.69 268.761C2239.12 274.835 2269.56 280.915 2300 287C2299.67 287.66 2299.34 288.32 2299 289C2297.24 289.575 2297.24 289.575 2294.89 290.043C2294 290.224 2293.11 290.406 2292.2 290.593C2291.21 290.786 2290.22 290.978 2289.2 291.177C2288.16 291.387 2287.11 291.597 2286.04 291.813C2282.52 292.52 2279 293.214 2275.48 293.909C2272.97 294.411 2270.45 294.913 2267.94 295.417C2262.52 296.502 2257.09 297.582 2251.67 298.656C2243.83 300.211 2235.98 301.774 2228.14 303.34C2215.42 305.88 2202.7 308.413 2189.98 310.94C2177.61 313.396 2165.25 315.856 2152.89 318.32C2151.75 318.548 2151.75 318.548 2150.59 318.78C2146.77 319.542 2142.95 320.304 2139.13 321.065C2107.42 327.388 2075.71 333.698 2044 340C2043.66 341.494 2043.66 341.494 2043.3 343.019C2023.66 428.197 2023.66 428.197 2015 465.582C2014.55 467.508 2014.55 467.508 2014.1 469.473C2011.77 479.55 2009.43 489.626 2007.1 499.703C2005.3 507.449 2003.51 515.195 2001.72 522.942C2000.91 526.426 2000.1 529.91 1999.3 533.393C1998.8 535.542 1998.3 537.69 1997.8 539.839C1997.57 540.859 1997.33 541.879 1997.09 542.93C1995.9 548.082 1994.72 553.237 1993.56 558.396C1993.33 559.417 1993.1 560.438 1992.86 561.491C1992.43 563.425 1992 565.361 1991.57 567.297C1991.28 568.578 1991.28 568.578 1990.98 569.886C1990.82 570.635 1990.65 571.385 1990.48 572.157C1990 574 1990 574 1989 576C1988.34 576 1987.68 576 1987 576C1983 561.85 1979.81 547.499 1976.52 533.172C1975.67 529.448 1974.81 525.726 1973.95 522.003C1972.31 514.882 1970.67 507.761 1969.03 500.64C1967.24 492.845 1965.44 485.051 1963.65 477.257C1961.33 467.188 1959.01 457.119 1956.69 447.05C1951.11 422.793 1945.51 398.539 1939.91 374.285C1939.71 373.413 1939.51 372.54 1939.3 371.641C1936.87 361.094 1934.43 350.547 1932 340C1931.46 339.893 1930.92 339.786 1930.37 339.675C1898.44 333.33 1866.52 326.976 1834.59 320.611C1830.77 319.847 1826.94 319.084 1823.11 318.32C1822.34 318.168 1821.58 318.016 1820.8 317.86C1808.44 315.396 1796.08 312.938 1783.72 310.482C1771.04 307.964 1758.37 305.44 1745.7 302.909C1737.87 301.346 1730.05 299.789 1722.22 298.238C1716.23 297.05 1710.24 295.853 1704.25 294.653C1701.78 294.16 1699.32 293.671 1696.85 293.185C1693.5 292.523 1690.15 291.851 1686.8 291.177C1685.81 290.984 1684.82 290.791 1683.8 290.593C1682.91 290.411 1682.02 290.23 1681.11 290.043C1680.33 289.888 1679.56 289.734 1678.76 289.575C1677.89 289.291 1677.89 289.291 1677 289C1676.67 288.34 1676.34 287.68 1676 287C1692.85 283.623 1709.71 280.248 1726.56 276.875C1727.84 276.62 1729.11 276.365 1730.43 276.102C1775.51 267.079 1820.61 258.112 1865.72 249.185C1866.84 248.964 1867.95 248.743 1869.1 248.515C1874.27 247.492 1879.44 246.469 1884.61 245.447C1900.41 242.321 1916.21 239.163 1932 236C1932.15 235.347 1932.3 234.694 1932.46 234.021C1932.78 232.616 1932.78 232.616 1933.11 231.184C1933.36 230.112 1933.61 229.04 1933.86 227.936C1934.43 225.467 1935 222.998 1935.57 220.529C1937.05 214.115 1938.53 207.702 1940.01 201.288C1940.9 197.444 1941.78 193.599 1942.67 189.755C1942.85 188.965 1943.04 188.176 1943.22 187.363C1945.87 175.908 1948.51 164.453 1951.16 152.999C1952.86 145.624 1954.56 138.25 1956.26 130.875C1956.45 130.061 1956.64 129.247 1956.83 128.408C1961.58 107.836 1966.32 87.2628 1971.06 66.6872C1972.53 60.2816 1974 53.8762 1975.48 47.4708C1976.82 41.6649 1978.15 35.8585 1979.48 30.0516C1980.29 26.5353 1981.1 23.0195 1981.91 19.5038C1982.28 17.9066 1982.64 16.3092 1983.01 14.7115C1983.5 12.5776 1983.99 10.4443 1984.48 8.31128C1984.75 7.13043 1985.03 5.94959 1985.3 4.73296C1986 2 1986 2 1987 0Z" fill="#153D63"/>
<path d="M565.75 395.75C566.533 395.75 567.315 395.749 568.122 395.748C580.313 395.765 592.065 396.315 604 399C604.787 399.172 605.574 399.344 606.384 399.52C639.455 406.926 669.362 424.973 687.797 454.031C695.374 466.433 701.031 479.029 705 493C705.193 493.661 705.386 494.321 705.584 495.001C708.885 506.459 710.629 518.171 712 530C712.084 530.714 712.169 531.427 712.256 532.162C712.942 538.37 713.146 544.489 713.133 550.731C713.134 552.221 713.134 552.221 713.136 553.741C713.136 555.831 713.134 557.921 713.13 560.011C713.125 563.162 713.13 566.313 713.137 569.463C713.148 598.557 713.148 598.557 711 605C634.44 605 557.88 605 479 605C483.411 621.098 483.411 621.098 490 636C490.512 637.005 491.023 638.009 491.551 639.043C503.711 661.477 526.869 677.455 550.921 684.905C590.815 696.138 632.521 692.248 672.819 685.271C677.963 684.395 682.782 683.789 688 684C690.241 697.54 692.35 711.095 694.25 724.688C694.425 725.922 694.6 727.156 694.78 728.427C695.02 730.171 695.02 730.171 695.266 731.95C695.408 732.974 695.55 733.998 695.696 735.054C696.006 738.058 696.053 740.983 696 744C680.263 747.457 664.34 749.553 648.312 751.125C647.177 751.239 647.177 751.239 646.019 751.354C630.462 752.792 614.866 753.21 599.25 753.188C598.379 753.187 597.508 753.186 596.611 753.185C542.785 753.06 492.746 740.746 453.273 702.348C442.494 690.97 434.387 677.902 427.818 663.742C427.114 662.242 426.365 660.763 425.609 659.289C402.165 612.252 405.568 544.842 420.927 496.055C433.468 458.987 457.179 429.103 492 411C492.91 410.518 493.82 410.036 494.758 409.539C509.123 402.469 525.224 399.066 541 397C542.243 396.828 543.486 396.656 544.767 396.479C551.727 395.617 558.748 395.756 565.75 395.75ZM503.236 480.989C486.479 499.43 476 527.139 476 552C533.42 552 590.84 552 650 552C649.512 536.743 649.512 536.743 647.375 521.813C647.202 520.997 647.028 520.18 646.85 519.339C642.312 499.375 631.759 480.344 614.281 468.872C580.429 448.036 531.334 452.181 503.236 480.989Z" fill="#FEFEFE"/>
<path d="M1836.64 429.847C1840.09 432.99 1843.04 436.409 1846 440C1846.54 440.577 1847.08 441.155 1847.63 441.75C1868.73 464.466 1878.55 495.132 1884 525C1884.25 526.324 1884.25 526.324 1884.5 527.674C1889.99 558.228 1889.73 593.508 1884 624C1883.83 624.958 1883.66 625.916 1883.48 626.904C1879.09 650.856 1871.2 674.973 1857 695C1856.28 696.012 1855.57 697.024 1854.83 698.066C1839.91 718.56 1820.39 733.314 1797 743C1796.19 743.347 1795.38 743.693 1794.54 744.051C1756.76 759.083 1708.56 756.299 1671.38 741.5C1637.15 726.234 1612.96 698.411 1599 664C1589.76 639.712 1584.93 613.077 1584.8 587.094C1584.79 586.179 1584.78 585.264 1584.78 584.322C1584.76 581.381 1584.75 578.441 1584.75 575.5C1584.75 573.991 1584.75 573.991 1584.75 572.451C1584.76 556.779 1585.26 541.469 1588 526C1588.17 525.025 1588.34 524.051 1588.52 523.047C1592.19 502.999 1598.06 483.841 1608 466C1608.35 465.364 1608.7 464.727 1609.05 464.072C1614.36 454.44 1620.56 446.088 1628 438C1628.79 437.127 1629.58 436.254 1630.39 435.355C1651.95 412.653 1680.63 401.631 1711 397C1711.68 396.895 1712.36 396.791 1713.07 396.683C1757.19 390.864 1802.38 401.009 1836.64 429.847ZM1684.5 479.293C1684.01 479.856 1683.51 480.419 1683 481C1682.53 481.532 1682.05 482.065 1681.56 482.613C1656.54 513.274 1654.39 559.821 1657.73 597.378C1660.69 625.884 1668.36 656.554 1691 676C1701.89 684.719 1714.9 690.705 1729 691C1730.62 691.058 1730.62 691.058 1732.27 691.117C1751.69 691.502 1769.31 687.076 1784 674C1790.1 667.731 1794.82 660.655 1799 653C1799.42 652.269 1799.84 651.538 1800.27 650.785C1811.38 630.211 1814.6 606.07 1815 583C1815.02 582.287 1815.03 581.573 1815.05 580.839C1815.14 575.889 1815.11 570.949 1815 566C1814.99 565.269 1814.97 564.537 1814.96 563.784C1814.31 532.824 1807.67 499.54 1785 477C1784.2 476.113 1783.39 475.226 1782.56 474.312C1771.97 464.753 1758.49 458.105 1744 458C1742.15 457.944 1742.15 457.944 1740.26 457.887C1718.38 457.386 1699.82 462.983 1684.5 479.293Z" fill="#FEFEFE"/>
<path d="M1987 0C1987.66 0 1988.32 0 1989 0C1992.32 12.025 1995.18 24.1365 1997.98 36.293C1998.47 38.3994 1998.95 40.5057 1999.44 42.612C2000.75 48.2893 2002.06 53.9673 2003.37 59.6454C2004.74 65.6053 2006.12 71.5646 2007.5 77.5239C2009.22 84.9834 2010.94 92.4429 2012.67 99.9027C2016.53 116.648 2020.41 133.391 2024.29 150.132C2025.17 153.914 2026.05 157.697 2026.92 161.48C2027.35 163.323 2027.35 163.323 2027.79 165.203C2028.35 167.653 2028.92 170.104 2029.49 172.554C2030.88 178.553 2032.27 184.551 2033.67 190.549C2034.97 196.182 2036.28 201.815 2037.59 207.449C2038.06 209.517 2038.54 211.585 2039.03 213.652C2039.68 216.474 2040.34 219.296 2040.99 222.119C2041.18 222.938 2041.37 223.756 2041.57 224.6C2042.52 228.719 2043.36 232.819 2044 237C2044.6 237.049 2045.2 237.098 2045.82 237.149C2052.16 237.719 2058.31 238.719 2064.54 239.98C2065.55 240.181 2066.57 240.382 2067.61 240.589C2070.98 241.259 2074.35 241.935 2077.72 242.612C2080.14 243.095 2082.57 243.578 2084.99 244.06C2090.2 245.097 2095.41 246.138 2100.62 247.18C2108.14 248.688 2115.67 250.19 2123.2 251.691C2135.42 254.127 2147.64 256.568 2159.86 259.01C2171.72 261.383 2183.58 263.753 2195.45 266.12C2196.18 266.266 2196.91 266.412 2197.67 266.563C2201.34 267.296 2205.01 268.029 2208.69 268.761C2239.12 274.835 2269.56 280.915 2300 287C2299.67 287.66 2299.34 288.32 2299 289C2297.24 289.575 2297.24 289.575 2294.89 290.043C2294 290.224 2293.11 290.406 2292.2 290.593C2291.21 290.786 2290.22 290.978 2289.2 291.177C2288.16 291.387 2287.11 291.597 2286.04 291.813C2282.52 292.52 2279 293.214 2275.48 293.909C2272.97 294.411 2270.45 294.913 2267.94 295.417C2262.52 296.502 2257.09 297.582 2251.67 298.656C2243.83 300.211 2235.98 301.774 2228.14 303.34C2215.42 305.88 2202.7 308.413 2189.98 310.94C2177.61 313.396 2165.25 315.856 2152.89 318.32C2151.75 318.548 2151.75 318.548 2150.59 318.78C2146.77 319.542 2142.95 320.304 2139.13 321.065C2107.42 327.388 2075.71 333.698 2044 340C2043.66 341.494 2043.66 341.494 2043.3 343.019C2023.66 428.197 2023.66 428.197 2015 465.582C2014.55 467.508 2014.55 467.508 2014.1 469.473C2011.77 479.55 2009.43 489.626 2007.1 499.703C2005.3 507.449 2003.51 515.195 2001.72 522.942C2000.91 526.426 2000.1 529.91 1999.3 533.393C1998.8 535.542 1998.3 537.69 1997.8 539.839C1997.57 540.859 1997.33 541.879 1997.09 542.93C1995.9 548.082 1994.72 553.237 1993.56 558.396C1993.33 559.417 1993.1 560.438 1992.86 561.491C1992.43 563.425 1992 565.361 1991.57 567.297C1991.28 568.578 1991.28 568.578 1990.98 569.886C1990.82 570.635 1990.65 571.385 1990.48 572.157C1990 574 1990 574 1989 576C1988.34 576 1987.68 576 1987 576C1983 561.85 1979.81 547.499 1976.52 533.172C1975.67 529.448 1974.81 525.726 1973.95 522.003C1972.31 514.882 1970.67 507.761 1969.03 500.64C1967.24 492.845 1965.44 485.051 1963.65 477.257C1961.33 467.188 1959.01 457.119 1956.69 447.05C1951.11 422.793 1945.51 398.539 1939.91 374.285C1939.71 373.413 1939.51 372.54 1939.3 371.641C1936.87 361.094 1934.43 350.547 1932 340C1931.46 339.893 1930.92 339.786 1930.37 339.675C1898.44 333.33 1866.52 326.976 1834.59 320.611C1830.77 319.847 1826.94 319.084 1823.11 318.32C1822.34 318.168 1821.58 318.016 1820.8 317.86C1808.44 315.396 1796.08 312.938 1783.72 310.482C1771.04 307.964 1758.37 305.44 1745.7 302.909C1737.87 301.346 1730.05 299.789 1722.22 298.238C1716.23 297.05 1710.24 295.853 1704.25 294.653C1701.78 294.16 1699.32 293.671 1696.85 293.185C1693.5 292.523 1690.15 291.851 1686.8 291.177C1685.81 290.984 1684.82 290.791 1683.8 290.593C1682.91 290.411 1682.02 290.23 1681.11 290.043C1680.33 289.888 1679.56 289.734 1678.76 289.575C1677.89 289.291 1677.89 289.291 1677 289C1676.67 288.34 1676.34 287.68 1676 287C1692.85 283.623 1709.71 280.248 1726.56 276.875C1727.84 276.62 1729.11 276.365 1730.43 276.102C1775.51 267.079 1820.61 258.112 1865.72 249.185C1866.84 248.964 1867.95 248.743 1869.1 248.515C1874.27 247.492 1879.44 246.469 1884.61 245.447C1900.41 242.321 1916.21 239.163 1932 236C1932.15 235.347 1932.3 234.694 1932.46 234.021C1932.78 232.616 1932.78 232.616 1933.11 231.184C1933.36 230.112 1933.61 229.04 1933.86 227.936C1934.43 225.467 1935 222.998 1935.57 220.529C1937.05 214.115 1938.53 207.702 1940.01 201.288C1940.9 197.444 1941.78 193.599 1942.67 189.755C1942.85 188.965 1943.04 188.176 1943.22 187.363C1945.87 175.908 1948.51 164.453 1951.16 152.999C1952.86 145.624 1954.56 138.25 1956.26 130.875C1956.45 130.061 1956.64 129.247 1956.83 128.408C1961.58 107.836 1966.32 87.2628 1971.06 66.6872C1972.53 60.2816 1974 53.8762 1975.48 47.4708C1976.82 41.6649 1978.15 35.8585 1979.48 30.0516C1980.29 26.5353 1981.1 23.0195 1981.91 19.5038C1982.28 17.9066 1982.64 16.3092 1983.01 14.7115C1983.5 12.5776 1983.99 10.4443 1984.48 8.31128C1984.75 7.13043 1985.03 5.94959 1985.3 4.73296C1986 2 1986 2 1987 0ZM1987 38C1983.95 49.0877 1981.25 60.2299 1978.69 71.4375C1978.29 73.1603 1977.89 74.8831 1977.5 76.606C1974.77 88.4787 1972.16 100.374 1969.59 112.281C1967.39 122.421 1964.97 132.499 1962.49 142.574C1959.84 153.34 1957.4 164.137 1955.08 174.977C1952.82 185.465 1950.37 195.894 1947.81 206.312C1945.6 215.311 1943.41 224.308 1941.5 233.375C1941.34 234.13 1941.18 234.884 1941.01 235.661C1940.43 238.502 1940 241.09 1940 244C1939.25 244.108 1938.49 244.216 1937.72 244.327C1928.76 245.654 1919.9 247.34 1911.03 249.129C1909.47 249.442 1907.91 249.755 1906.35 250.067C1903 250.736 1899.66 251.406 1896.32 252.078C1890.99 253.151 1885.66 254.219 1880.33 255.286C1871.85 256.985 1863.37 258.687 1854.89 260.389C1839.84 263.413 1824.78 266.433 1809.72 269.451C1804.47 270.503 1799.22 271.556 1793.97 272.611C1769.66 277.493 1745.34 282.275 1721 287C1721 287.66 1721 288.32 1721 289C1726.78 290.145 1732.55 291.29 1738.33 292.435C1741.61 293.084 1744.88 293.734 1748.16 294.383C1760.39 296.807 1772.62 299.231 1784.85 301.655C1789.98 302.672 1795.12 303.69 1800.25 304.707C1800.9 304.835 1801.55 304.964 1802.22 305.096C1819.92 308.604 1837.62 312.115 1855.32 315.631C1863.95 317.345 1872.58 319.058 1881.21 320.77C1887.1 321.938 1892.98 323.108 1898.87 324.279C1904.4 325.378 1909.92 326.475 1915.45 327.571C1917.48 327.973 1919.51 328.377 1921.54 328.781C1924.29 329.329 1927.05 329.876 1929.8 330.421C1930.61 330.583 1931.42 330.745 1932.26 330.912C1936.1 331.712 1936.1 331.712 1940 332C1940.16 333.837 1940.16 333.837 1940.32 335.711C1941 341.794 1942.4 347.677 1943.81 353.625C1944.22 355.364 1944.22 355.364 1944.63 357.138C1946.01 362.998 1947.45 368.825 1949.06 374.625C1951.09 381.981 1952.6 389.428 1954.07 396.913C1955.18 402.442 1956.47 407.878 1957.95 413.32C1959.98 420.79 1961.65 428.305 1963.25 435.875C1965.64 447.044 1968.21 458.159 1970.94 469.25C1974.23 482.615 1977.28 496.023 1980.21 509.472C1982.3 519.029 1984.58 528.523 1987 538C1989.46 535.536 1989.58 534.092 1990.26 530.699C1990.49 529.593 1990.72 528.486 1990.95 527.346C1991.32 525.535 1991.32 525.535 1991.69 523.688C1992.22 521.107 1992.76 518.528 1993.3 515.949C1993.51 514.955 1993.51 514.955 1993.72 513.94C1995.13 507.26 1996.74 500.63 1998.38 494C2001.07 483.03 2003.58 472.032 2006 461C2008.64 448.964 2011.42 436.972 2014.36 425.003C2016.87 414.691 2019.17 404.338 2021.44 393.971C2023.28 385.57 2025.17 377.186 2027.21 368.832C2027.4 368.09 2027.58 367.347 2027.77 366.582C2028.63 363.067 2029.5 359.555 2030.39 356.046C2032.37 348.07 2033.91 340.146 2035 332C2036.2 331.89 2037.4 331.781 2038.64 331.668C2045.1 330.946 2051.44 329.613 2057.81 328.312C2059.16 328.041 2060.5 327.769 2061.85 327.497C2070.16 325.813 2078.46 324.051 2086.75 322.25C2099.15 319.563 2111.57 317.035 2124.01 314.539C2126.17 314.104 2128.33 313.669 2130.5 313.233C2141.15 311.085 2151.8 309.007 2162.52 307.211C2179.34 304.367 2196.03 300.766 2212.74 297.308C2217.29 296.367 2221.84 295.43 2226.4 294.492C2235.27 292.665 2244.13 290.834 2253 289C2253 288.34 2253 287.68 2253 287C2252.37 286.876 2251.75 286.751 2251.1 286.623C2243.15 285.043 2235.2 283.46 2227.25 281.875C2225.98 281.621 2224.7 281.367 2223.39 281.105C2219.56 280.341 2215.73 279.575 2211.9 278.809C2210.73 278.574 2209.55 278.34 2208.34 278.099C2200.15 276.456 2191.98 274.72 2183.81 272.938C2170.58 270.052 2157.29 267.543 2143.99 265.018C2128.37 262.049 2112.78 258.965 2097.21 255.797C2096.31 255.615 2095.42 255.433 2094.49 255.245C2085.47 253.411 2076.45 251.571 2067.43 249.72C2064.04 249.025 2060.65 248.333 2057.25 247.641C2055.66 247.315 2054.06 246.988 2052.47 246.659C2050.27 246.206 2048.08 245.757 2045.88 245.31C2044.64 245.056 2043.41 244.802 2042.13 244.54C2038.87 243.887 2038.87 243.887 2035 244C2034.89 243.22 2034.79 242.441 2034.68 241.637C2033.49 233.391 2031.77 225.391 2029.75 217.312C2029.12 214.733 2028.48 212.154 2027.85 209.574C2027.54 208.295 2027.22 207.015 2026.9 205.697C2024.8 197.088 2022.85 188.445 2020.88 179.809C2019.87 175.433 2018.85 171.06 2017.84 166.688C2014.07 150.497 2010.38 134.303 2006.96 118.037C2005.52 111.243 2003.87 104.578 2002 97.8906C2000.32 91.6129 1999.15 85.2067 1997.86 78.8408C1996.46 71.9874 1994.8 65.2895 1992.91 58.5547C1991.68 53.7528 1990.82 48.9043 1990.04 44.0117C1989.75 42.3294 1989.38 40.6621 1989 39C1988.34 38.67 1987.68 38.34 1987 38Z" fill="#042433"/>
<path d="M39.6307 1104H5.88068L67.3295 929.455H106.364L167.898 1104H134.148L87.5284 965.25H86.1648L39.6307 1104ZM40.7386 1035.56H132.784V1060.96H40.7386V1035.56ZM263.307 929.455V1104H231.688V929.455H263.307ZM461.093 1104H427.343L488.792 929.455H527.826L589.36 1104H555.61L508.991 965.25H507.627L461.093 1104ZM462.201 1035.56H554.247V1060.96H462.201V1035.56ZM651.787 1104V973.091H681.275V995.335H682.809C685.537 987.835 690.054 981.983 696.361 977.778C702.667 973.517 710.196 971.386 718.946 971.386C727.809 971.386 735.281 973.545 741.361 977.864C747.497 982.125 751.815 987.949 754.315 995.335H755.679C758.576 988.062 763.463 982.267 770.338 977.949C777.27 973.574 785.48 971.386 794.968 971.386C807.014 971.386 816.843 975.193 824.457 982.807C832.071 990.42 835.878 1001.53 835.878 1016.13V1104H804.94V1020.9C804.94 1012.78 802.781 1006.84 798.463 1003.09C794.145 999.284 788.861 997.381 782.611 997.381C775.167 997.381 769.343 999.71 765.139 1004.37C760.991 1008.97 758.917 1014.97 758.917 1022.35V1104H728.662V1019.62C728.662 1012.86 726.616 1007.47 722.525 1003.43C718.491 999.398 713.207 997.381 706.673 997.381C702.241 997.381 698.207 998.517 694.571 1000.79C690.934 1003.01 688.037 1006.16 685.878 1010.25C683.718 1014.28 682.639 1019 682.639 1024.4V1104H651.787ZM907.977 1153.09V973.091H938.318V994.739H940.108C941.699 991.557 943.943 988.176 946.841 984.597C949.739 980.96 953.659 977.864 958.602 975.307C963.545 972.693 969.852 971.386 977.523 971.386C987.636 971.386 996.756 973.972 1004.88 979.142C1013.06 984.256 1019.54 991.841 1024.31 1001.9C1029.14 1011.9 1031.56 1024.17 1031.56 1038.72C1031.56 1053.09 1029.2 1065.31 1024.48 1075.36C1019.77 1085.42 1013.35 1093.09 1005.22 1098.38C997.097 1103.66 987.892 1106.3 977.608 1106.3C970.108 1106.3 963.886 1105.05 958.943 1102.55C954 1100.05 950.023 1097.04 947.011 1093.52C944.057 1089.94 941.756 1086.56 940.108 1083.38H938.83V1153.09H907.977ZM938.233 1038.55C938.233 1047.01 939.426 1054.43 941.812 1060.79C944.256 1067.15 947.75 1072.12 952.295 1075.7C956.898 1079.23 962.466 1080.99 969 1080.99C975.818 1080.99 981.528 1079.17 986.131 1075.53C990.733 1071.84 994.199 1066.81 996.528 1060.45C998.915 1054.03 1000.11 1046.73 1000.11 1038.55C1000.11 1030.42 998.943 1023.2 996.614 1016.9C994.284 1010.59 990.818 1005.65 986.216 1002.07C981.614 998.489 975.875 996.699 969 996.699C962.409 996.699 956.812 998.432 952.21 1001.9C947.608 1005.36 944.114 1010.22 941.727 1016.47C939.398 1022.72 938.233 1030.08 938.233 1038.55ZM1129.63 929.455V1104H1098.78V929.455H1129.63ZM1202.16 1104V973.091H1233.01V1104H1202.16ZM1217.67 954.511C1212.78 954.511 1208.58 952.892 1205.05 949.653C1201.53 946.358 1199.77 942.409 1199.77 937.807C1199.77 933.148 1201.53 929.199 1205.05 925.96C1208.58 922.665 1212.78 921.017 1217.67 921.017C1222.61 921.017 1226.81 922.665 1230.28 925.96C1233.8 929.199 1235.56 933.148 1235.56 937.807C1235.56 942.409 1233.8 946.358 1230.28 949.653C1226.81 952.892 1222.61 954.511 1217.67 954.511ZM1371.84 973.091V996.955H1294.45V973.091H1371.84ZM1313.8 1104V960.733C1313.8 951.926 1315.62 944.597 1319.26 938.744C1322.95 932.892 1327.89 928.517 1334.08 925.619C1340.28 922.722 1347.15 921.273 1354.71 921.273C1360.05 921.273 1364.79 921.699 1368.94 922.551C1373.09 923.403 1376.16 924.17 1378.15 924.852L1372.01 948.716C1370.7 948.318 1369.06 947.92 1367.07 947.523C1365.08 947.068 1362.86 946.841 1360.42 946.841C1354.68 946.841 1350.62 948.233 1348.23 951.017C1345.9 953.744 1344.74 957.665 1344.74 962.778V1104H1313.8ZM1436.8 1104V973.091H1467.65V1104H1436.8ZM1452.31 954.511C1447.43 954.511 1443.22 952.892 1439.7 949.653C1436.18 946.358 1434.42 942.409 1434.42 937.807C1434.42 933.148 1436.18 929.199 1439.7 925.96C1443.22 922.665 1447.43 921.017 1452.31 921.017C1457.26 921.017 1461.46 922.665 1464.93 925.96C1468.45 929.199 1470.21 933.148 1470.21 937.807C1470.21 942.409 1468.45 946.358 1464.93 949.653C1461.46 952.892 1457.26 954.511 1452.31 954.511ZM1598.13 1106.56C1585.01 1106.56 1573.67 1103.83 1564.13 1098.38C1554.64 1092.86 1547.34 1085.08 1542.23 1075.02C1537.11 1064.91 1534.56 1053.01 1534.56 1039.31C1534.56 1025.85 1537.11 1014.03 1542.23 1003.86C1547.4 993.631 1554.61 985.676 1563.87 979.994C1573.13 974.256 1584.02 971.386 1596.52 971.386C1604.58 971.386 1612.2 972.693 1619.36 975.307C1626.57 977.864 1632.94 981.841 1638.45 987.239C1644.02 992.636 1648.39 999.511 1651.57 1007.86C1654.75 1016.16 1656.35 1026.05 1656.35 1037.52V1046.98H1549.04V1026.19H1626.77C1626.71 1020.28 1625.44 1015.02 1622.94 1010.42C1620.44 1005.76 1616.94 1002.1 1612.45 999.426C1608.02 996.756 1602.85 995.42 1596.94 995.42C1590.63 995.42 1585.1 996.955 1580.32 1000.02C1575.55 1003.03 1571.83 1007.01 1569.16 1011.95C1566.54 1016.84 1565.21 1022.21 1565.15 1028.06V1046.22C1565.15 1053.83 1566.54 1060.36 1569.33 1065.82C1572.11 1071.22 1576 1075.36 1581 1078.26C1586 1081.1 1591.86 1082.52 1598.56 1082.52C1603.05 1082.52 1607.11 1081.9 1610.75 1080.65C1614.38 1079.34 1617.54 1077.44 1620.21 1074.94C1622.88 1072.44 1624.9 1069.34 1626.26 1065.65L1655.07 1068.89C1653.25 1076.5 1649.78 1083.15 1644.67 1088.83C1639.61 1094.45 1633.13 1098.83 1625.24 1101.95C1617.34 1105.02 1608.31 1106.56 1598.13 1106.56ZM1771.83 1106.3C1761.54 1106.3 1752.34 1103.66 1744.21 1098.38C1736.09 1093.09 1729.67 1085.42 1724.95 1075.36C1720.23 1065.31 1717.88 1053.09 1717.88 1038.72C1717.88 1024.17 1720.26 1011.9 1725.04 1001.9C1729.87 991.841 1736.37 984.256 1744.55 979.142C1752.73 973.972 1761.85 971.386 1771.91 971.386C1779.58 971.386 1785.89 972.693 1790.83 975.307C1795.77 977.864 1799.69 980.96 1802.59 984.597C1805.49 988.176 1807.73 991.557 1809.33 994.739H1810.6V929.455H1841.54V1104H1811.2V1083.38H1809.33C1807.73 1086.56 1805.43 1089.94 1802.42 1093.52C1799.41 1097.04 1795.43 1100.05 1790.49 1102.55C1785.55 1105.05 1779.33 1106.3 1771.83 1106.3ZM1780.43 1080.99C1786.97 1080.99 1792.54 1079.23 1797.14 1075.7C1801.74 1072.12 1805.23 1067.15 1807.62 1060.79C1810.01 1054.43 1811.2 1047.01 1811.2 1038.55C1811.2 1030.08 1810.01 1022.72 1807.62 1016.47C1805.29 1010.22 1801.83 1005.36 1797.22 1001.9C1792.68 998.432 1787.08 996.699 1780.43 996.699C1773.56 996.699 1767.82 998.489 1763.22 1002.07C1758.62 1005.65 1755.15 1010.59 1752.82 1016.9C1750.49 1023.2 1749.33 1030.42 1749.33 1038.55C1749.33 1046.73 1750.49 1054.03 1752.82 1060.45C1755.21 1066.81 1758.7 1071.84 1763.3 1075.53C1767.96 1079.17 1773.67 1080.99 1780.43 1080.99Z" fill="white"/>
</svg>
